PathFileType	4	(X/Y/Z)	./resultDataOpenSim/trcMotMarkerGrf/sub10/qtm-02-08.trc
DataRate	CameraRate	NumFrames	NumMarkers	Units	OrigDataRate	OrigDataStartFrame	OrigNumFrames
250.000000	250.000000	8	24	m	250.000000	296	473
Frame#	Time	L.Toe.Tip			R.Toe.Tip			L.Ankle.Lat			R.Ankle.Lat			L.Ankle.Med			R.Ankle.Med			L.Heel			R.Heel			L.Knee.Lat			R.Knee.Lat			L.Knee.Med			R.Knee.Med			L.Thigh.Upper			R.Thigh.Upper			L.ASIS			R.ASIS			V.Sacral			L.Acromium			R.Acromium			C7			L.Elbow			R.Elbow			L.Wrist.Lat			R.Wrist.Lat
		X1	Y1	Z1	X2	Y2	Z2	X3	Y3	Z3	X4	Y4	Z4	X5	Y5	Z5	X6	Y6	Z6	X7	Y7	Z7	X8	Y8	Z8	X9	Y9	Z9	X10	Y10	Z10	X11	Y11	Z11	X12	Y12	Z12	X13	Y13	Z13	X14	Y14	Z14	X15	Y15	Z15	X16	Y16	Z16	X17	Y17	Z17	X18	Y18	Z18	X19	Y19	Z19	X20	Y20	Z20	X21	Y21	Z21	X22	Y22	Z22	X23	Y23	Z23	X24	Y24	Z24

296	1.18	0.034259343	0.017576335	-0.12551121	0.85808116	0.09045676	0.050647427	-0.063968709	0.11187933	-0.14473921	0.72321661	0.061032183	0.093655128	-0.039405524	0.12441841	-0.06477734	0.7312697	0.094492749	0.01129354	-0.12819259	0.11937249	-0.094935573	0.68415891	0.020751683	0.047281847	0.15907203	0.42888696	-0.1781807	0.6181631	0.45299402	0.11479496	0.17946622	0.39057785	-0.059959406	0.62600998	0.45857003	-0.015441727	0.28854024	0.79878713	-0.2133082	0.43800795	0.81592253	0.15167659	0.38217562	0.89328556	-0.17946984	0.47304995	0.90457094	0.052083075	0.24229451	0.90129241	0.014582615	0.3593181	1.3676972	-0.19123671	0.35822194	1.3669336	0.13049074	0.27524077	1.3915002	-0.038296829	0.38490414	1.0286286	-0.28615725	0.1969005	1.0626764	0.1664478	0.62273112	0.95830119	-0.25773759	0.23358465	0.83623763	0.24760412
297	1.184	0.035102628	0.0176364	-0.12545001	0.85912304	0.08659141	0.050928985	-0.060456869	0.1146422	-0.14512471	0.72384188	0.059213898	0.094238456	-0.035221579	0.12660097	-0.065425061	0.73245374	0.091954591	0.011632446	-0.12393392	0.12356791	-0.094930511	0.6843923	0.019489782	0.047724105	0.16625052	0.42915923	-0.1783653	0.62545086	0.45234498	0.11498003	0.18668076	0.3903758	-0.060364354	0.63380141	0.45849917	-0.015161988	0.2962687	0.79849705	-0.21263681	0.44566829	0.81638979	0.15236316	0.39004077	0.89296135	-0.17878252	0.48127116	0.90522459	0.052603311	0.25028429	0.90129679	0.014885936	0.36548144	1.3678264	-0.19042521	0.36536861	1.3669755	0.13121217	0.28177866	1.3912014	-0.037186911	0.39104306	1.028864	-0.28538296	0.20409903	1.062958	0.16680107	0.62892088	0.95871548	-0.25688963	0.23906614	0.83639655	0.24807418
298	1.188	0.035979236	0.017677403	-0.12541955	0.86012514	0.082776423	0.051102229	-0.056709876	0.1174057	-0.14550843	0.72465368	0.057528297	0.094752558	-0.030733682	0.12873549	-0.066067643	0.73389201	0.089623353	0.011879197	-0.11939407	0.12775897	-0.094854233	0.68471448	0.018641953	0.0480321	0.17363341	0.42940479	-0.17856997	0.63236165	0.45157279	0.11505057	0.19406541	0.39011973	-0.06081894	0.6411706	0.45823615	-0.014806023	0.30412375	0.79817566	-0.21199133	0.45331999	0.81684866	0.15305302	0.39804439	0.89262816	-0.17804541	0.48959817	0.90590883	0.053194942	0.25851224	0.90134688	0.014953957	0.37170736	1.3679874	-0.18956469	0.37254818	1.3670272	0.13195655	0.28831958	1.3909361	-0.036007776	0.39714057	1.0290532	-0.28445257	0.21137472	1.0632161	0.16717281	0.63500862	0.95905354	-0.25608178	0.24472483	0.83654863	0.24857418
299	1.192	0.036907836	0.017692971	-0.12542485	0.86137252	0.078723652	0.051295487	-0.052714569	0.12015489	-0.1458936	0.72606023	0.055924614	0.095019126	-0.025936454	0.13078945	-0.066724833	0.73590665	0.087679642	0.011977604	-0.11451774	0.1319368	-0.094721926	0.68527151	0.018386345	0.048137456	0.18127118	0.42960963	-0.17882792	0.63890279	0.45067593	0.11505763	0.20166343	0.38979851	-0.061369079	0.64800222	0.45776334	-0.014380484	0.31210239	0.79780603	-0.21134855	0.46097217	0.81731478	0.15374135	0.40616673	0.89227093	-0.17725903	0.49795708	0.90661941	0.053863109	0.26676003	0.90146805	0.014904607	0.37798937	1.3681717	-0.18865917	0.37976171	1.3670916	0.13272284	0.2949079	1.3907535	-0.034821307	0.40319769	1.0292034	-0.28336767	0.21872983	1.0634454	0.16755725	0.64099003	0.95931293	-0.25530414	0.25060434	0.83669689	0.24911455
300	1.196	0.037923019	0.017676157	-0.12547177	0.863245	0.074249185	0.051580398	-0.048443987	0.12286622	-0.14629766	0.72827136	0.054535222	0.094997098	-0.020808979	0.13273569	-0.067417174	0.73877011	0.086254912	0.01189965	-0.10925451	0.13609233	-0.094544581	0.68617562	0.018824081	0.04807111	0.18920008	0.42975691	-0.17916512	0.64503178	0.44968901	0.11500409	0.20955335	0.38941819	-0.062089006	0.65432184	0.45710126	-0.013994145	0.32020163	0.79736874	-0.21068855	0.46864341	0.8177925	0.1544313	0.41439358	0.89187584	-0.17643293	0.50623897	0.90736426	0.054615531	0.27464141	0.90164069	0.014983995	0.3843201	1.368376	-0.18772204	0.3870033	1.367163	0.13351396	0.30159449	1.3906714	-0.033722054	0.4091956	1.0293259	-0.28220547	0.22616418	1.0636517	0.16795034	0.64686755	0.95949212	-0.25455397	0.2566808	0.83684484	0.24969692
301	1.2	0.039082158	0.017618643	-0.12556359	0.8659929	0.069497061	0.051915573	-0.043864688	0.12550866	-0.1467476	0.73115981	0.053559121	0.094824375	-0.015328482	0.13455096	-0.06816243	0.74244944	0.085329639	0.011675393	-0.10356892	0.14020895	-0.094338055	0.68741355	0.019834527	0.047979499	0.19741209	0.42983001	-0.17957583	0.65069819	0.44867792	0.11485827	0.21780931	0.38897995	-0.06303704	0.6602582	0.45630401	-0.013787365	0.32841531	0.79684403	-0.21000548	0.47639604	0.81827686	0.15516922	0.42271522	0.89143776	-0.17557617	0.51438716	0.90814204	0.055439587	0.28191332	0.90180678	0.015337929	0.39069822	1.3686046	-0.18676835	0.39425291	1.3672329	0.13433751	0.30840046	1.3906135	-0.032767114	0.41510646	1.0294305	-0.28109367	0.23367044	1.063842	0.16835162	0.6526551	0.95958729	-0.25383863	0.26290489	0.83698962	0.25031644
302	1.204	0.040446195	0.017510388	-0.12570563	0.8695278	0.064933395	0.052186906	-0.038953948	0.12805316	-0.14725888	0.73433498	0.05301771	0.094668972	-0.0094909802	0.13622056	-0.068976329	0.74646135	0.084720808	0.011404578	-0.097443615	0.14426833	-0.094131368	0.68884231	0.02109966	0.048001372	0.20588163	0.42982178	-0.18004327	0.65598226	0.44771651	0.11462276	0.2264376	0.38843066	-0.064171183	0.66590616	0.45543472	-0.013784243	0.3367314	0.79621354	-0.20929712	0.48432427	0.81878121	0.15602942	0.43112376	0.89096094	-0.17468506	0.52241993	0.90894394	0.056323416	0.28876131	0.90193332	0.015888232	0.39712693	1.368868	-0.18581351	0.40149096	1.3672999	0.13519749	0.31529496	1.3904625	-0.031919253	0.42090839	1.0295175	-0.28012784	0.24123801	1.0640152	0.1687667	0.65836947	0.9595939	-0.25316099	0.26923322	0.83712522	0.25096794
303	1.208	0.04203038	0.017336495	-0.12590464	0.87339242	0.061042539	0.052276063	-0.033702572	0.13047977	-0.14782718	0.73733798	0.052751718	0.094617152	-0.0033205246	0.13773948	-0.069873401	0.75012499	0.084212934	0.011209494	-0.090886788	0.14825654	-0.093960193	0.69028522	0.022314199	0.048181902	0.21458639	0.42973748	-0.18055748	0.66119578	0.44688953	0.11438465	0.23539533	0.38768415	-0.065380934	0.6713158	0.45456023	-0.013882472	0.34513259	0.79546031	-0.20854886	0.49249375	0.81936043	0.15704716	0.43960662	0.89045509	-0.17374419	0.53038119	0.90976276	0.057274667	0.29576022	0.90203715	0.016484401	0.40360957	1.3691797	-0.18487367	0.40871304	1.3673729	0.13609131	0.32219438	1.3901997	-0.031040619	0.42658665	1.0295661	-0.27928728	0.24886096	1.0641607	0.16920684	0.66401879	0.95951271	-0.25251828	0.27565786	0.83724931	0.25165337
